<svg width="1919" height="189" viewBox="0 0 1919 189" fill="none" xmlns="http://www.w3.org/2000/svg">
<path d="M206.889 27.4539C245.445 27.4539 276.817 58.8262 276.817 97.3823V167.311L165.52 167.311C191.768 167.311 215.605 177.76 233.137 194.714H304.246L304.246 97.3572C304.246 43.6801 260.566 0 206.889 0C179.46 0 154.669 11.4287 136.961 29.7397L136.961 97.3572C136.961 58.8263 168.333 27.4539 206.889 27.4539Z" fill="#0099DD"/>
<path d="M136.96 167.336V194.739H165.545H233.162C215.63 177.785 191.793 167.336 165.545 167.336L136.96 167.336Z" fill="#00B53C"/>
<path d="M39.6032 334.621C1.04716 334.621 -30.3252 303.249 -30.3252 264.668L-30.3252 194.739L80.9724 194.739C54.7241 194.739 30.8873 184.29 13.3549 167.336H-57.754L-57.754 264.693C-57.754 318.37 -14.0739 362.05 39.6032 362.05C67.032 362.05 91.8234 350.621 109.557 332.31L109.557 264.693C109.532 303.249 78.1593 334.621 39.6032 334.621Z" fill="#FFB000"/>
<g filter="url(#filter0_d_216_304)">
<path d="M11.0192 97.4075C11.0192 58.8515 42.3915 27.4791 80.9475 27.4791L109.532 27.4791L109.532 97.4075C109.532 71.1593 119.981 47.3224 136.936 29.79V0.050293L80.9475 0.050293C27.2704 0.050293 -16.4095 43.7304 -16.4095 97.4075C-16.4095 124.836 -4.98097 149.628 13.33 167.336L80.9475 167.336C42.4166 167.336 11.0192 135.964 11.0192 97.4075Z" fill="#E2005C"/>
</g>
<path d="M109.532 167.336H136.936L136.936 97.4075V29.79C119.981 47.3224 109.532 71.1593 109.532 97.4075L109.532 167.336Z" fill="#0099DD"/>
<path d="M109.532 194.739V167.336H80.9475L13.33 167.336C30.8623 184.29 54.6992 194.739 80.9475 194.739H109.532Z" fill="#E2005C"/>
<path d="M136.96 194.739V167.336H109.557V194.739H136.96Z" fill="#FFB000"/>
<path d="M655.05 138.752C655.05 85.0747 611.37 41.3945 557.693 41.3945C530.264 41.3945 505.473 52.8233 487.765 71.1343V138.752C487.765 100.196 519.137 68.8234 557.693 68.8234C596.249 68.8234 627.647 100.196 627.647 138.752V167.336H557.693C583.941 167.336 607.778 177.785 625.311 194.74L655.05 194.74V138.752Z" fill="#00B53C"/>
<path d="M320.454 97.3824C320.454 58.8263 351.826 27.4539 390.382 27.4539L460.311 27.4539V138.752C460.311 112.503 470.76 88.6664 487.714 71.1341V0.0251465L390.357 0.0251465C336.68 0.0251465 293 43.7053 293 97.3824C293 124.811 304.429 149.603 322.74 167.311H390.357C351.826 167.311 320.454 135.938 320.454 97.3824Z" fill="#0099DD"/>
<path d="M460.336 167.311H487.74V138.726V71.1089C470.785 88.6412 460.336 112.478 460.336 138.726V167.311Z" fill="#00B53C"/>
<path d="M487.739 167.311V194.714H557.668H625.285C607.753 177.76 583.916 167.311 557.668 167.311H487.739Z" fill="#FFB000"/>
<g filter="url(#filter1_d_216_304)">
<path d="M390.408 293.252C351.851 293.252 320.479 261.88 320.479 223.324V194.74H390.408C364.159 194.74 340.322 184.29 322.79 167.336H293.05V223.324C293.05 277.001 336.73 320.681 390.408 320.681C417.836 320.681 442.628 309.252 460.336 290.941V223.324C460.336 261.855 428.964 293.252 390.408 293.252Z" fill="#E2005C"/>
</g>
<path d="M460.336 194.74V167.336H390.408H322.79C340.322 184.29 364.159 194.74 390.408 194.74H460.336Z" fill="#0099DD"/>
<path d="M487.74 167.311H460.336V194.714H487.74V167.311Z" fill="#FFB000"/>
<path d="M608.975 223.299C608.975 276.976 652.655 320.656 706.332 320.656C733.761 320.656 758.553 309.227 776.261 290.916V223.299C776.261 261.855 744.888 293.227 706.332 293.227C667.776 293.227 636.379 261.855 636.379 223.299V194.715L706.332 194.715C680.084 194.715 656.247 184.266 638.715 167.311L608.975 167.311V223.299Z" fill="#00B53C"/>
<path d="M636.404 97.3825C636.404 58.8265 667.776 27.4541 706.357 27.4541L776.286 27.4541V138.752C776.286 112.503 786.735 88.6665 803.689 71.1342V0.0252991L706.332 0.0252991C652.655 0.0252991 608.975 43.7054 608.975 97.3825C608.975 124.811 620.404 149.603 638.715 167.336L706.332 167.336C667.776 167.311 636.404 135.939 636.404 97.3825Z" fill="#FFB000"/>
<path d="M776.286 194.74V167.336L706.358 167.336H638.74C656.273 184.291 680.109 194.74 706.358 194.74L776.286 194.74Z" fill="#FFB000"/>
<g filter="url(#filter2_d_216_304)">
<path d="M873.618 68.7984C912.174 68.7984 943.546 100.171 943.546 138.727V167.311L873.618 167.311C899.866 167.311 923.703 177.76 941.235 194.715H970.975V138.727C970.975 85.0496 927.295 41.3696 873.618 41.3696C846.189 41.3696 821.398 52.7982 803.689 71.1092V138.727C803.689 100.196 835.062 68.7984 873.618 68.7984Z" fill="#E2005C"/>
</g>
<path d="M803.689 167.311V194.715H873.618L941.235 194.715C923.703 177.76 899.866 167.311 873.618 167.311H803.689Z" fill="#0099DD"/>
<path d="M776.286 167.311H803.689V138.727V71.1092C786.735 88.6415 776.286 112.478 776.286 138.727V167.311Z" fill="#E2005C"/>
<path d="M776.286 194.74H803.689V167.336H776.286V194.74Z" fill="#FFB000"/>
<path d="M1189.62 27.4542C1228.17 27.4542 1259.55 58.8265 1259.55 97.3825V167.311L1148.25 167.311C1174.5 167.311 1198.33 177.76 1215.87 194.715H1286.97V97.3575C1286.97 43.6804 1243.29 0.000244141 1189.62 0.000244141C1162.19 0.000244141 1137.4 11.4289 1119.69 29.7399V97.3575C1119.69 58.8265 1151.06 27.4542 1189.62 27.4542Z" fill="#0099DD"/>
<path d="M1119.69 167.336V194.74L1148.27 194.74H1215.89C1198.36 177.785 1174.52 167.336 1148.27 167.336L1119.69 167.336Z" fill="#00B53C"/>
<path d="M1022.33 334.622C983.776 334.622 952.403 303.249 952.403 264.668V194.74L1063.7 194.74C1037.45 194.74 1013.62 184.291 996.083 167.336H924.975V264.693C924.975 318.37 968.655 362.05 1022.33 362.05C1049.76 362.05 1074.55 350.622 1092.29 332.311V264.693C1092.26 303.249 1060.89 334.622 1022.33 334.622Z" fill="#FFB000"/>
<g filter="url(#filter3_d_216_304)">
<path d="M993.748 97.4078C993.748 58.8517 1025.12 27.4794 1063.68 27.4794L1092.26 27.4794V97.4078C1092.26 71.1595 1102.71 47.3226 1119.66 29.7903V0.0505371L1063.68 0.0505371C1010 0.0505371 966.319 43.7307 966.319 97.4078C966.319 124.837 977.748 149.628 996.059 167.336L1063.68 167.336C1025.15 167.336 993.748 135.964 993.748 97.4078Z" fill="#E2005C"/>
</g>
<path d="M1092.26 167.336H1119.66V97.4078V29.7903C1102.71 47.3226 1092.26 71.1595 1092.26 97.4078V167.336Z" fill="#0099DD"/>
<path d="M1092.26 194.74V167.336H1063.68L996.059 167.336C1013.59 184.291 1037.43 194.74 1063.68 194.74H1092.26Z" fill="#E2005C"/>
<path d="M1119.69 194.74V167.336H1092.29V194.74H1119.69Z" fill="#FFB000"/>
<path d="M1602.98 138.752C1602.98 85.0749 1559.29 41.3948 1505.62 41.3948C1478.19 41.3948 1453.4 52.8235 1435.69 71.1345L1435.69 138.752C1435.69 100.196 1467.06 68.8237 1505.62 68.8237C1544.17 68.8237 1575.57 100.196 1575.57 138.752L1575.57 167.336L1505.62 167.336C1531.87 167.336 1555.7 177.785 1573.24 194.74L1602.98 194.74L1602.98 138.752Z" fill="#00B53C"/>
<path d="M1268.38 97.3826C1268.38 58.8265 1299.75 27.4542 1338.31 27.4542L1408.24 27.4542L1408.24 138.752C1408.24 112.504 1418.68 88.6666 1435.64 71.1343L1435.64 0.0253906L1338.28 0.0253906C1284.6 0.0253906 1240.92 43.7055 1240.92 97.3826C1240.92 124.811 1252.35 149.603 1270.66 167.311L1338.28 167.311C1299.75 167.311 1268.38 135.939 1268.38 97.3826Z" fill="#0099DD"/>
<path d="M1408.26 167.311L1435.66 167.311V138.727L1435.66 71.1091C1418.71 88.6415 1408.26 112.478 1408.26 138.727V167.311Z" fill="#00B53C"/>
<path d="M1435.66 167.311V194.715L1505.59 194.715L1573.21 194.715C1555.68 177.76 1531.84 167.311 1505.59 167.311L1435.66 167.311Z" fill="#FFB000"/>
<g filter="url(#filter4_d_216_304)">
<path d="M1338.33 293.252C1299.78 293.252 1268.4 261.88 1268.4 223.324L1268.4 194.74L1338.33 194.74C1312.08 194.74 1288.25 184.291 1270.71 167.336L1240.98 167.336L1240.98 223.324C1240.98 277.001 1284.66 320.681 1338.33 320.681C1365.76 320.681 1390.55 309.253 1408.26 290.942L1408.26 223.324C1408.26 261.855 1376.89 293.252 1338.33 293.252Z" fill="#E2005C"/>
</g>
<path d="M1408.26 194.74V167.336L1338.33 167.336L1270.71 167.336C1288.25 184.291 1312.08 194.74 1338.33 194.74L1408.26 194.74Z" fill="#0099DD"/>
<path d="M1435.66 167.311L1408.26 167.311V194.715L1435.66 194.715V167.311Z" fill="#FFB000"/>
<path d="M1695.73 0.000152588C1642.05 0.000152588 1598.37 43.6803 1598.37 97.3574C1598.37 124.786 1609.8 149.578 1628.11 167.286H1695.73C1657.17 167.286 1625.8 135.913 1625.8 97.3574C1625.8 58.8013 1657.17 27.4039 1695.73 27.4039H1724.31V97.3574C1724.31 71.1091 1734.76 47.2722 1751.71 29.7399V0.000152588L1695.73 0.000152588Z" fill="#00B53C"/>
<path d="M1654.36 334.597C1615.8 334.597 1584.43 303.224 1584.43 264.668V194.74L1695.73 194.74C1669.48 194.74 1645.64 184.291 1628.11 167.336H1557V264.693C1557 318.37 1600.68 362.051 1654.36 362.051C1681.79 362.051 1706.58 350.622 1724.29 332.311V264.693C1724.29 303.224 1692.91 334.597 1654.36 334.597Z" fill="#0099DD"/>
<path d="M1724.29 194.715V167.311H1695.7H1628.08C1645.62 184.266 1669.45 194.715 1695.7 194.715H1724.29Z" fill="#00B53C"/>
<path d="M1821.64 27.4292C1860.2 27.4292 1891.57 58.8016 1891.57 97.3828V167.311H1780.27C1806.52 167.311 1830.36 177.76 1847.89 194.715L1919 194.715V97.3576C1919 43.6806 1875.32 0.000411987 1821.64 0.000411987C1794.21 0.000411987 1769.42 11.4291 1751.69 29.7401V97.3576C1751.71 58.8016 1783.09 27.4292 1821.64 27.4292Z" fill="#FFB000"/>
<path d="M1724.29 167.311H1751.69V97.3827V29.7651C1734.73 47.2974 1724.29 71.1344 1724.29 97.3827V167.311Z" fill="#FFB000"/>
<path d="M1751.71 167.311V194.715H1780.3H1847.92C1830.38 177.76 1806.55 167.311 1780.3 167.311H1751.71Z" fill="#E2005C"/>
<path d="M1724.29 167.311V194.715H1751.69V167.311H1724.29Z" fill="#FFB000"/>
<defs>
<filter id="filter0_d_216_304" x="-17.6006" y="0.050293" width="155.727" height="169.668" filterUnits="userSpaceOnUse" color-interpolation-filters="sRGB">
<feFlood flood-opacity="0" result="BackgroundImageFix"/>
<feColorMatrix in="SourceAlpha" type="matrix" values="0 0 0 0 0 0 0 0 0 0 0 0 0 0 0 0 0 0 127 0" result="hardAlpha"/>
<feOffset dy="1.19095"/>
<feGaussianBlur stdDeviation="0.595477"/>
<feComposite in2="hardAlpha" operator="out"/>
<feColorMatrix type="matrix" values="0 0 0 0 0 0 0 0 0 0 0 0 0 0 0 0 0 0 0.25 0"/>
<feBlend mode="normal" in2="BackgroundImageFix" result="effect1_dropShadow_216_304"/>
<feBlend mode="normal" in="SourceGraphic" in2="effect1_dropShadow_216_304" result="shape"/>
</filter>
<filter id="filter1_d_216_304" x="291.859" y="167.336" width="169.668" height="155.727" filterUnits="userSpaceOnUse" color-interpolation-filters="sRGB">
<feFlood flood-opacity="0" result="BackgroundImageFix"/>
<feColorMatrix in="SourceAlpha" type="matrix" values="0 0 0 0 0 0 0 0 0 0 0 0 0 0 0 0 0 0 127 0" result="hardAlpha"/>
<feOffset dy="1.19095"/>
<feGaussianBlur stdDeviation="0.595477"/>
<feComposite in2="hardAlpha" operator="out"/>
<feColorMatrix type="matrix" values="0 0 0 0 0 0 0 0 0 0 0 0 0 0 0 0 0 0 0.25 0"/>
<feBlend mode="normal" in2="BackgroundImageFix" result="effect1_dropShadow_216_304"/>
<feBlend mode="normal" in="SourceGraphic" in2="effect1_dropShadow_216_304" result="shape"/>
</filter>
<filter id="filter2_d_216_304" x="802.498" y="41.3696" width="169.668" height="155.727" filterUnits="userSpaceOnUse" color-interpolation-filters="sRGB">
<feFlood flood-opacity="0" result="BackgroundImageFix"/>
<feColorMatrix in="SourceAlpha" type="matrix" values="0 0 0 0 0 0 0 0 0 0 0 0 0 0 0 0 0 0 127 0" result="hardAlpha"/>
<feOffset dy="1.19095"/>
<feGaussianBlur stdDeviation="0.595477"/>
<feComposite in2="hardAlpha" operator="out"/>
<feColorMatrix type="matrix" values="0 0 0 0 0 0 0 0 0 0 0 0 0 0 0 0 0 0 0.25 0"/>
<feBlend mode="normal" in2="BackgroundImageFix" result="effect1_dropShadow_216_304"/>
<feBlend mode="normal" in="SourceGraphic" in2="effect1_dropShadow_216_304" result="shape"/>
</filter>
<filter id="filter3_d_216_304" x="965.128" y="0.0505371" width="155.727" height="169.668" filterUnits="userSpaceOnUse" color-interpolation-filters="sRGB">
<feFlood flood-opacity="0" result="BackgroundImageFix"/>
<feColorMatrix in="SourceAlpha" type="matrix" values="0 0 0 0 0 0 0 0 0 0 0 0 0 0 0 0 0 0 127 0" result="hardAlpha"/>
<feOffset dy="1.19095"/>
<feGaussianBlur stdDeviation="0.595477"/>
<feComposite in2="hardAlpha" operator="out"/>
<feColorMatrix type="matrix" values="0 0 0 0 0 0 0 0 0 0 0 0 0 0 0 0 0 0 0.25 0"/>
<feBlend mode="normal" in2="BackgroundImageFix" result="effect1_dropShadow_216_304"/>
<feBlend mode="normal" in="SourceGraphic" in2="effect1_dropShadow_216_304" result="shape"/>
</filter>
<filter id="filter4_d_216_304" x="1239.78" y="167.336" width="169.668" height="155.727" filterUnits="userSpaceOnUse" color-interpolation-filters="sRGB">
<feFlood flood-opacity="0" result="BackgroundImageFix"/>
<feColorMatrix in="SourceAlpha" type="matrix" values="0 0 0 0 0 0 0 0 0 0 0 0 0 0 0 0 0 0 127 0" result="hardAlpha"/>
<feOffset dy="1.19095"/>
<feGaussianBlur stdDeviation="0.595477"/>
<feComposite in2="hardAlpha" operator="out"/>
<feColorMatrix type="matrix" values="0 0 0 0 0 0 0 0 0 0 0 0 0 0 0 0 0 0 0.25 0"/>
<feBlend mode="normal" in2="BackgroundImageFix" result="effect1_dropShadow_216_304"/>
<feBlend mode="normal" in="SourceGraphic" in2="effect1_dropShadow_216_304" result="shape"/>
</filter>
</defs>
</svg>
