<svg width="3904" height="365" viewBox="0 0 3904 365" fill="none" xmlns="http://www.w3.org/2000/svg">
<path d="M223.274 362.05C276.951 362.05 320.631 318.37 320.631 264.693C320.631 237.264 309.202 212.473 290.891 194.765L223.274 194.765C261.83 194.765 293.202 226.137 293.202 264.693C293.202 303.249 261.83 334.647 223.274 334.647H194.689L194.689 264.693C194.689 290.941 184.24 314.778 167.286 332.311V362.05H223.274Z" fill="#00B53C"/>
<path d="M264.643 27.4539C303.199 27.4539 334.571 58.8262 334.571 97.3823V167.311L223.274 167.311C249.522 167.311 273.359 177.76 290.891 194.714H362L362 97.3572C362 43.6801 318.32 0 264.643 0C237.214 0 212.423 11.4287 194.714 29.7397L194.714 97.3572C194.714 58.8263 226.087 27.4539 264.643 27.4539Z" fill="#0099DD"/>
<path d="M194.714 167.336V194.739H223.299H290.916C273.384 177.785 249.547 167.336 223.299 167.336L194.714 167.336Z" fill="#00B53C"/>
<path d="M97.3571 334.621C58.8011 334.621 27.4287 303.249 27.4287 264.668L27.4287 194.739L138.726 194.739C112.478 194.739 88.6412 184.29 71.1088 167.336H-9.15527e-05L-9.15527e-05 264.693C-9.15527e-05 318.37 43.6801 362.05 97.3571 362.05C124.786 362.05 149.577 350.621 167.311 332.31V264.693C167.285 303.249 135.913 334.621 97.3571 334.621Z" fill="#FFB000"/>
<path d="M194.714 194.74H167.311V264.668L167.311 332.285C184.265 314.753 194.714 290.916 194.714 264.668V194.74Z" fill="#FFB000"/>
<g filter="url(#filter0_d_1_1559)">
<path d="M68.7731 97.4075C68.7731 58.8515 100.145 27.4791 138.701 27.4791L167.286 27.4791V97.4075C167.286 71.1593 177.735 47.3224 194.689 29.79V0.050293L138.701 0.050293C85.0244 0.050293 41.3444 43.7304 41.3444 97.4075C41.3444 124.836 52.7729 149.628 71.0839 167.336L138.701 167.336C100.17 167.336 68.7731 135.964 68.7731 97.4075Z" fill="#E2005C"/>
</g>
<path d="M167.286 167.336H194.689L194.689 97.4075V29.79C177.735 47.3224 167.286 71.1593 167.286 97.4075L167.286 167.336Z" fill="#0099DD"/>
<path d="M167.286 194.739V167.336H138.701L71.0839 167.336C88.6162 184.29 112.453 194.739 138.701 194.739H167.286Z" fill="#E2005C"/>
<path d="M194.714 194.739V167.336H167.311V194.739H194.714Z" fill="#FFB000"/>
<path d="M712.804 138.752C712.804 85.0747 669.124 41.3945 615.447 41.3945C588.018 41.3945 563.227 52.8233 545.519 71.1343V138.752C545.519 100.196 576.891 68.8234 615.447 68.8234C654.003 68.8234 685.4 100.196 685.4 138.752V167.336H615.447C641.695 167.336 665.532 177.785 683.064 194.74L712.804 194.74V138.752Z" fill="#00B53C"/>
<path d="M378.208 97.3824C378.208 58.8263 409.58 27.4539 448.136 27.4539L518.065 27.4539V138.752C518.065 112.503 528.514 88.6664 545.468 71.1341V0.0251465L448.111 0.0251465C394.434 0.0251465 350.754 43.7053 350.754 97.3824C350.754 124.811 362.183 149.603 380.494 167.311H448.111C409.58 167.311 378.208 135.938 378.208 97.3824Z" fill="#0099DD"/>
<path d="M518.09 167.311H545.494V138.726V71.1089C528.539 88.6412 518.09 112.478 518.09 138.726V167.311Z" fill="#00B53C"/>
<path d="M685.375 264.668C685.375 303.224 654.003 334.596 615.422 334.596H545.494V223.299C545.494 249.547 535.044 273.384 518.09 290.916V362.025H615.447C669.124 362.025 712.804 318.345 712.804 264.668C712.804 237.239 701.376 212.448 683.065 194.715L615.447 194.715C654.003 194.74 685.375 226.112 685.375 264.668Z" fill="#FFB000"/>
<path d="M545.493 167.311V194.715H615.422H683.039C665.507 177.76 641.67 167.311 615.422 167.311H545.493Z" fill="#FFB000"/>
<g filter="url(#filter1_d_1_1559)">
<path d="M448.161 293.252C409.605 293.252 378.233 261.88 378.233 223.324V194.74H448.161C421.913 194.74 398.076 184.291 380.544 167.336H350.804V223.324C350.804 277.001 394.484 320.681 448.161 320.681C475.59 320.681 500.382 309.252 518.09 290.941V223.324C518.09 261.855 486.717 293.252 448.161 293.252Z" fill="#E2005C"/>
</g>
<path d="M518.09 194.74V167.336H448.161H380.544C398.076 184.291 421.913 194.74 448.161 194.74H518.09Z" fill="#0099DD"/>
<path d="M545.494 194.74H518.09V223.324V290.941C535.044 273.409 545.494 249.572 545.494 223.324V194.74Z" fill="#E2005C"/>
<path d="M545.494 167.311H518.09V194.715H545.494V167.311Z" fill="#FFB000"/>
<path d="M666.729 223.299C666.729 276.976 710.409 320.656 764.086 320.656C791.515 320.656 816.306 309.227 834.015 290.916V223.299C834.015 261.855 802.642 293.227 764.086 293.227C725.53 293.227 694.133 261.855 694.133 223.299V194.715L764.086 194.715C737.838 194.715 714.001 184.265 696.469 167.311L666.729 167.311V223.299Z" fill="#00B53C"/>
<path d="M1001.33 264.668C1001.33 303.224 969.953 334.597 931.397 334.597L861.469 334.597V223.299C861.469 249.547 851.02 273.384 834.065 290.916V362.025L931.422 362.025C985.099 362.025 1028.78 318.345 1028.78 264.668C1028.78 237.239 1017.35 212.448 999.04 194.74L931.422 194.74C969.953 194.74 1001.33 226.112 1001.33 264.668Z" fill="#0099DD"/>
<path d="M861.443 194.74H834.04V223.324V290.942C850.994 273.409 861.443 249.572 861.443 223.324V194.74Z" fill="#00B53C"/>
<path d="M694.158 97.3825C694.158 58.8265 725.53 27.4541 764.111 27.4541L834.04 27.4541V138.752C834.04 112.503 844.489 88.6665 861.443 71.1342V0.0252991L764.086 0.0252991C710.409 0.0252991 666.729 43.7054 666.729 97.3825C666.729 124.811 678.158 149.603 696.469 167.336L764.086 167.336C725.53 167.311 694.158 135.939 694.158 97.3825Z" fill="#FFB000"/>
<path d="M834.04 194.74V167.336L764.112 167.336H696.494C714.026 184.291 737.863 194.74 764.112 194.74L834.04 194.74Z" fill="#FFB000"/>
<g filter="url(#filter2_d_1_1559)">
<path d="M931.372 68.7983C969.928 68.7983 1001.3 100.171 1001.3 138.727V167.311L931.372 167.311C957.621 167.311 981.457 177.76 998.99 194.715H1028.73V138.727C1028.73 85.0495 985.049 41.3695 931.372 41.3695C903.943 41.3695 879.152 52.7981 861.444 71.1091V138.727C861.444 100.196 892.816 68.7983 931.372 68.7983Z" fill="#E2005C"/>
</g>
<path d="M861.443 167.311V194.715H931.372L998.989 194.715C981.457 177.76 957.62 167.311 931.372 167.311H861.443Z" fill="#0099DD"/>
<path d="M834.04 167.311H861.443V138.727V71.1093C844.489 88.6416 834.04 112.479 834.04 138.727V167.311Z" fill="#E2005C"/>
<path d="M834.04 194.74H861.443V167.336H834.04V194.74Z" fill="#FFB000"/>
<path d="M1206 362.051C1259.68 362.051 1303.36 318.37 1303.36 264.693C1303.36 237.264 1291.93 212.473 1273.62 194.765L1206 194.765C1244.56 194.765 1275.93 226.137 1275.93 264.693C1275.93 303.249 1244.56 334.647 1206 334.647H1177.42V264.693C1177.42 290.942 1166.97 314.778 1150.01 332.311V362.051H1206Z" fill="#00B53C"/>
<path d="M1247.37 27.4542C1285.93 27.4542 1317.3 58.8265 1317.3 97.3825V167.311L1206 167.311C1232.25 167.311 1256.09 177.76 1273.62 194.715H1344.73V97.3575C1344.73 43.6804 1301.05 0.000244141 1247.37 0.000244141C1219.94 0.000244141 1195.15 11.4289 1177.44 29.7399V97.3575C1177.44 58.8265 1208.82 27.4542 1247.37 27.4542Z" fill="#0099DD"/>
<path d="M1177.44 167.336V194.74L1206.03 194.74H1273.64C1256.11 177.785 1232.28 167.336 1206.03 167.336L1177.44 167.336Z" fill="#00B53C"/>
<path d="M1080.09 334.622C1041.53 334.622 1010.16 303.249 1010.16 264.668V194.74L1121.45 194.74C1095.21 194.74 1071.37 184.291 1053.84 167.336H982.728V264.693C982.728 318.37 1026.41 362.05 1080.09 362.05C1107.51 362.05 1132.31 350.622 1150.04 332.311V264.693C1150.01 303.249 1118.64 334.622 1080.09 334.622Z" fill="#FFB000"/>
<path d="M1177.44 194.74H1150.04V264.668V332.286C1166.99 314.753 1177.44 290.916 1177.44 264.668V194.74Z" fill="#FFB000"/>
<g filter="url(#filter3_d_1_1559)">
<path d="M1051.5 97.4078C1051.5 58.8517 1082.87 27.4794 1121.43 27.4794L1150.01 27.4794V97.4078C1150.01 71.1595 1160.46 47.3226 1177.42 29.7903V0.0505371L1121.43 0.0505371C1067.75 0.0505371 1024.07 43.7307 1024.07 97.4078C1024.07 124.837 1035.5 149.628 1053.81 167.336L1121.43 167.336C1082.9 167.336 1051.5 135.964 1051.5 97.4078Z" fill="#E2005C"/>
</g>
<path d="M1150.01 167.336H1177.42V97.4078V29.7903C1160.46 47.3226 1150.01 71.1595 1150.01 97.4078V167.336Z" fill="#0099DD"/>
<path d="M1150.01 194.74V167.336H1121.43L1053.81 167.336C1071.34 184.291 1095.18 194.74 1121.43 194.74H1150.01Z" fill="#E2005C"/>
<path d="M1177.44 194.74V167.336H1150.04V194.74H1177.44Z" fill="#FFB000"/>
<path d="M1660.73 138.752C1660.73 85.0749 1617.05 41.3948 1563.37 41.3948C1535.94 41.3948 1511.15 52.8235 1493.44 71.1345L1493.44 138.752C1493.44 100.196 1524.82 68.8237 1563.37 68.8237C1601.93 68.8237 1633.33 100.196 1633.33 138.752L1633.33 167.336L1563.37 167.336C1589.62 167.336 1613.46 177.785 1630.99 194.74L1660.73 194.74L1660.73 138.752Z" fill="#00B53C"/>
<path d="M1326.13 97.3826C1326.13 58.8265 1357.5 27.4542 1396.06 27.4542L1465.99 27.4542L1465.99 138.752C1465.99 112.504 1476.44 88.6666 1493.39 71.1343L1493.39 0.0253906L1396.04 0.0253906C1342.36 0.0253906 1298.68 43.7055 1298.68 97.3826C1298.68 124.811 1310.11 149.603 1328.42 167.311L1396.04 167.311C1357.5 167.311 1326.13 135.939 1326.13 97.3826Z" fill="#0099DD"/>
<path d="M1466.01 167.311L1493.42 167.311V138.727L1493.42 71.1091C1476.46 88.6415 1466.01 112.478 1466.01 138.727V167.311Z" fill="#00B53C"/>
<path d="M1633.3 264.668C1633.3 303.224 1601.93 334.597 1563.35 334.597L1493.42 334.597L1493.42 223.299C1493.42 249.547 1482.97 273.384 1466.01 290.917L1466.01 362.025L1563.37 362.025C1617.05 362.025 1660.73 318.345 1660.73 264.668C1660.73 237.239 1649.3 212.448 1630.99 194.715L1563.37 194.715C1601.93 194.74 1633.3 226.112 1633.3 264.668Z" fill="#FFB000"/>
<path d="M1493.42 167.311V194.715L1563.35 194.715L1630.96 194.715C1613.43 177.76 1589.59 167.311 1563.35 167.311L1493.42 167.311Z" fill="#FFB000"/>
<g filter="url(#filter4_d_1_1559)">
<path d="M1396.09 293.253C1357.53 293.253 1326.16 261.88 1326.16 223.324L1326.16 194.74L1396.09 194.74C1369.84 194.74 1346 184.291 1328.47 167.336L1298.73 167.336L1298.73 223.324C1298.73 277.001 1342.41 320.681 1396.09 320.681C1423.51 320.681 1448.31 309.253 1466.01 290.942L1466.01 223.324C1466.01 261.855 1434.64 293.253 1396.09 293.253Z" fill="#E2005C"/>
</g>
<path d="M1466.01 194.74V167.336L1396.09 167.336L1328.47 167.336C1346 184.291 1369.84 194.74 1396.09 194.74L1466.01 194.74Z" fill="#0099DD"/>
<path d="M1493.42 194.74L1466.01 194.74V223.324L1466.01 290.941C1482.97 273.409 1493.42 249.572 1493.42 223.324V194.74Z" fill="#E2005C"/>
<path d="M1493.42 167.311L1466.01 167.311V194.715L1493.42 194.715V167.311Z" fill="#FFB000"/>
<path d="M1753.48 0.000274658C1699.8 0.000274658 1656.12 43.6804 1656.12 97.3575C1656.12 124.786 1667.55 149.578 1685.86 167.286H1753.48C1714.92 167.286 1683.55 135.914 1683.55 97.3575C1683.55 58.8014 1714.92 27.404 1753.48 27.404H1782.06V97.3575C1782.06 71.1092 1792.51 47.2723 1809.47 29.74V0.000274658L1753.48 0.000274658Z" fill="#00B53C"/>
<path d="M1712.11 334.597C1673.56 334.597 1642.18 303.224 1642.18 264.668V194.74L1753.48 194.74C1727.23 194.74 1703.4 184.291 1685.86 167.336H1614.75V264.693C1614.75 318.37 1658.43 362.051 1712.11 362.051C1739.54 362.051 1764.33 350.622 1782.04 332.311V264.693C1782.04 303.224 1750.67 334.597 1712.11 334.597Z" fill="#0099DD"/>
<path d="M1782.04 194.715V167.311H1753.46H1685.84C1703.37 184.266 1727.21 194.715 1753.46 194.715H1782.04Z" fill="#00B53C"/>
<path d="M1879.4 27.4292C1917.95 27.4292 1949.33 58.8016 1949.33 97.3828V167.311H1838.03C1864.28 167.311 1888.11 177.76 1905.65 194.715L1976.75 194.715V97.3576C1976.75 43.6806 1933.07 0.000411987 1879.4 0.000411987C1851.97 0.000411987 1827.18 11.4291 1809.44 29.7401V97.3576C1809.47 58.8016 1840.84 27.4292 1879.4 27.4292Z" fill="#FFB000"/>
<path d="M1782.04 167.311H1809.44V97.3827V29.7651C1792.49 47.2974 1782.04 71.1344 1782.04 97.3827V167.311Z" fill="#FFB000"/>
<g filter="url(#filter5_d_1_1559)">
<path d="M1907.98 264.643C1907.98 303.199 1876.61 334.571 1838.05 334.571H1809.47V264.643C1809.47 290.891 1799.02 314.728 1782.06 332.261V362H1838.05C1891.73 362 1935.41 318.32 1935.41 264.643C1935.41 237.214 1923.98 212.423 1905.67 194.715H1838.05C1876.58 194.715 1907.98 226.087 1907.98 264.643Z" fill="#E2005C"/>
</g>
<path d="M1809.47 194.715H1782.06V264.643V332.26C1799.02 314.728 1809.47 290.891 1809.47 264.643V194.715Z" fill="#0099DD"/>
<path d="M1809.47 167.311V194.715H1838.05H1905.67C1888.14 177.76 1864.3 167.311 1838.05 167.311H1809.47Z" fill="#E2005C"/>
<path d="M1782.04 167.311V194.715H1809.44V167.311H1782.04Z" fill="#FFB000"/>
<path d="M2150.03 362.05C2203.7 362.05 2247.38 318.37 2247.38 264.693C2247.38 237.264 2235.96 212.473 2217.65 194.765L2150.03 194.765C2188.58 194.765 2219.96 226.137 2219.96 264.693C2219.96 303.249 2188.58 334.647 2150.03 334.647H2121.44V264.693C2121.44 290.941 2110.99 314.778 2094.04 332.311V362.05H2150.03Z" fill="#00B53C"/>
<path d="M2191.4 27.4539C2229.95 27.4539 2261.33 58.8262 2261.33 97.3823V167.311L2150.03 167.311C2176.28 167.311 2200.11 177.76 2217.64 194.714H2288.75V97.3572C2288.75 43.6801 2245.07 0 2191.4 0C2163.97 0 2139.18 11.4287 2121.47 29.7397V97.3572C2121.47 58.8263 2152.84 27.4539 2191.4 27.4539Z" fill="#0099DD"/>
<path d="M2121.47 167.336V194.739H2150.05H2217.67C2200.14 177.785 2176.3 167.336 2150.05 167.336L2121.47 167.336Z" fill="#00B53C"/>
<path d="M2024.11 334.621C1985.55 334.621 1954.18 303.249 1954.18 264.668V194.739L2065.48 194.739C2039.23 194.739 2015.4 184.29 1997.86 167.336H1926.75V264.693C1926.75 318.37 1970.43 362.05 2024.11 362.05C2051.54 362.05 2076.33 350.621 2094.06 332.31V264.693C2094.04 303.249 2062.67 334.621 2024.11 334.621Z" fill="#FFB000"/>
<path d="M2121.47 194.74H2094.06V264.668V332.285C2111.02 314.753 2121.47 290.916 2121.47 264.668V194.74Z" fill="#FFB000"/>
<g filter="url(#filter6_d_1_1559)">
<path d="M1995.53 97.4075C1995.53 58.8515 2026.9 27.4791 2065.46 27.4791L2094.04 27.4791V97.4075C2094.04 71.1593 2104.49 47.3224 2121.44 29.79V0.050293L2065.46 0.050293C2011.78 0.050293 1968.1 43.7304 1968.1 97.4075C1968.1 124.836 1979.53 149.628 1997.84 167.336L2065.46 167.336C2026.92 167.336 1995.53 135.964 1995.53 97.4075Z" fill="#E2005C"/>
</g>
<path d="M2094.04 167.336H2121.44V97.4075V29.79C2104.49 47.3224 2094.04 71.1593 2094.04 97.4075V167.336Z" fill="#0099DD"/>
<path d="M2094.04 194.739V167.336H2065.45L1997.84 167.336C2015.37 184.29 2039.21 194.739 2065.45 194.739H2094.04Z" fill="#E2005C"/>
<path d="M2121.47 194.739V167.336H2094.06V194.739H2121.47Z" fill="#FFB000"/>
<path d="M2639.56 138.752C2639.56 85.0747 2595.88 41.3945 2542.2 41.3945C2514.77 41.3945 2489.98 52.8233 2472.27 71.1343V138.752C2472.27 100.196 2503.64 68.8234 2542.2 68.8234C2580.76 68.8234 2612.15 100.196 2612.15 138.752V167.336H2542.2C2568.45 167.336 2592.29 177.785 2609.82 194.74L2639.56 194.74V138.752Z" fill="#00B53C"/>
<path d="M2304.96 97.3824C2304.96 58.8263 2336.33 27.4539 2374.89 27.4539L2444.82 27.4539V138.752C2444.82 112.503 2455.27 88.6664 2472.22 71.1341V0.0251465L2374.87 0.0251465C2321.19 0.0251465 2277.51 43.7053 2277.51 97.3824C2277.51 124.811 2288.94 149.603 2307.25 167.311H2374.87C2336.33 167.311 2304.96 135.938 2304.96 97.3824Z" fill="#0099DD"/>
<path d="M2444.84 167.311H2472.25V138.726V71.1089C2455.29 88.6412 2444.84 112.478 2444.84 138.726V167.311Z" fill="#00B53C"/>
<path d="M2612.13 264.668C2612.13 303.224 2580.76 334.596 2542.18 334.596H2472.25V223.299C2472.25 249.547 2461.8 273.384 2444.84 290.916V362.025H2542.2C2595.88 362.025 2639.56 318.345 2639.56 264.668C2639.56 237.239 2628.13 212.448 2609.82 194.715L2542.2 194.715C2580.76 194.74 2612.13 226.112 2612.13 264.668Z" fill="#FFB000"/>
<path d="M2472.25 167.311V194.715H2542.18H2609.79C2592.26 177.76 2568.42 167.311 2542.18 167.311H2472.25Z" fill="#FFB000"/>
<g filter="url(#filter7_d_1_1559)">
<path d="M2374.91 293.252C2336.36 293.252 2304.99 261.88 2304.99 223.324V194.74H2374.91C2348.67 194.74 2324.83 184.291 2307.3 167.336H2277.56V223.324C2277.56 277.001 2321.24 320.681 2374.91 320.681C2402.34 320.681 2427.14 309.252 2444.84 290.941V223.324C2444.84 261.855 2413.47 293.252 2374.91 293.252Z" fill="#E2005C"/>
</g>
<path d="M2444.84 194.74V167.336H2374.92H2307.3C2324.83 184.291 2348.67 194.74 2374.92 194.74H2444.84Z" fill="#0099DD"/>
<path d="M2472.25 194.74H2444.84V223.324V290.941C2461.8 273.409 2472.25 249.572 2472.25 223.324V194.74Z" fill="#E2005C"/>
<path d="M2472.25 167.311H2444.84V194.715H2472.25V167.311Z" fill="#FFB000"/>
<path d="M2593.48 223.299C2593.48 276.976 2637.16 320.656 2690.84 320.656C2718.27 320.656 2743.06 309.227 2760.77 290.916V223.299C2760.77 261.855 2729.4 293.227 2690.84 293.227C2652.28 293.227 2620.89 261.855 2620.89 223.299V194.715L2690.84 194.715C2664.59 194.715 2640.76 184.265 2623.22 167.311L2593.48 167.311V223.299Z" fill="#00B53C"/>
<path d="M2928.08 264.668C2928.08 303.224 2896.71 334.597 2858.15 334.597L2788.22 334.597V223.299C2788.22 249.547 2777.77 273.384 2760.82 290.916V362.025L2858.18 362.025C2911.85 362.025 2955.53 318.345 2955.53 264.668C2955.53 237.239 2944.1 212.448 2925.79 194.74L2858.18 194.74C2896.71 194.74 2928.08 226.112 2928.08 264.668Z" fill="#0099DD"/>
<path d="M2788.2 194.74H2760.79V223.324V290.942C2777.75 273.409 2788.2 249.572 2788.2 223.324V194.74Z" fill="#00B53C"/>
<path d="M2620.91 97.3825C2620.91 58.8265 2652.28 27.4541 2690.87 27.4541L2760.79 27.4541V138.752C2760.79 112.503 2771.24 88.6665 2788.2 71.1342V0.0252991L2690.84 0.0252991C2637.16 0.0252991 2593.48 43.7054 2593.48 97.3825C2593.48 124.811 2604.91 149.603 2623.22 167.336L2690.84 167.336C2652.28 167.311 2620.91 135.939 2620.91 97.3825Z" fill="#FFB000"/>
<path d="M2760.79 194.74V167.336L2690.87 167.336H2623.25C2640.78 184.291 2664.62 194.74 2690.87 194.74L2760.79 194.74Z" fill="#FFB000"/>
<g filter="url(#filter8_d_1_1559)">
<path d="M2858.13 68.7983C2896.68 68.7983 2928.05 100.171 2928.05 138.727V167.311L2858.13 167.311C2884.37 167.311 2908.21 177.76 2925.74 194.715H2955.48V138.727C2955.48 85.0495 2911.8 41.3695 2858.13 41.3695C2830.7 41.3695 2805.91 52.7981 2788.2 71.1091V138.727C2788.2 100.196 2819.57 68.7983 2858.13 68.7983Z" fill="#E2005C"/>
</g>
<path d="M2788.2 167.311V194.715H2858.13L2925.74 194.715C2908.21 177.76 2884.37 167.311 2858.13 167.311H2788.2Z" fill="#0099DD"/>
<path d="M2760.79 167.311H2788.2V138.727V71.1093C2771.24 88.6416 2760.79 112.479 2760.79 138.727V167.311Z" fill="#E2005C"/>
<path d="M2760.79 194.74H2788.2V167.336H2760.79V194.74Z" fill="#FFB000"/>
<path d="M3132.76 362.051C3186.43 362.051 3230.11 318.37 3230.11 264.693C3230.11 237.264 3218.68 212.473 3200.37 194.765L3132.76 194.765C3171.31 194.765 3202.68 226.137 3202.68 264.693C3202.68 303.249 3171.31 334.647 3132.76 334.647H3104.17V264.693C3104.17 290.942 3093.72 314.778 3076.77 332.311V362.051H3132.76Z" fill="#00B53C"/>
<path d="M3174.13 27.4542C3212.68 27.4542 3244.05 58.8265 3244.05 97.3825V167.311L3132.76 167.311C3159 167.311 3182.84 177.76 3200.37 194.715H3271.48V97.3575C3271.48 43.6804 3227.8 0.000244141 3174.13 0.000244141C3146.7 0.000244141 3121.91 11.4289 3104.2 29.7399V97.3575C3104.2 58.8265 3135.57 27.4542 3174.13 27.4542Z" fill="#0099DD"/>
<path d="M3104.2 167.336V194.74L3132.78 194.74H3200.4C3182.87 177.785 3159.03 167.336 3132.78 167.336L3104.2 167.336Z" fill="#00B53C"/>
<path d="M3006.84 334.622C2968.28 334.622 2936.91 303.249 2936.91 264.668V194.74L3048.21 194.74C3021.96 194.74 2998.12 184.291 2980.59 167.336H2909.48V264.693C2909.48 318.37 2953.16 362.05 3006.84 362.05C3034.27 362.05 3059.06 350.622 3076.79 332.311V264.693C3076.77 303.249 3045.4 334.622 3006.84 334.622Z" fill="#FFB000"/>
<path d="M3104.2 194.74H3076.79V264.668V332.286C3093.75 314.753 3104.2 290.916 3104.2 264.668V194.74Z" fill="#FFB000"/>
<g filter="url(#filter9_d_1_1559)">
<path d="M2978.26 97.4078C2978.26 58.8517 3009.63 27.4794 3048.18 27.4794L3076.77 27.4794V97.4078C3076.77 71.1595 3087.22 47.3226 3104.17 29.7903V0.0505371L3048.18 0.0505371C2994.51 0.0505371 2950.83 43.7307 2950.83 97.4078C2950.83 124.837 2962.26 149.628 2980.57 167.336L3048.18 167.336C3009.65 167.336 2978.26 135.964 2978.26 97.4078Z" fill="#E2005C"/>
</g>
<path d="M3076.77 167.336H3104.17V97.4078V29.7903C3087.22 47.3226 3076.77 71.1595 3076.77 97.4078V167.336Z" fill="#0099DD"/>
<path d="M3076.77 194.74V167.336H3048.18L2980.57 167.336C2998.1 184.291 3021.94 194.74 3048.18 194.74H3076.77Z" fill="#E2005C"/>
<path d="M3104.2 194.74V167.336H3076.79V194.74H3104.2Z" fill="#FFB000"/>
<path d="M3587.48 138.752C3587.48 85.0749 3543.8 41.3948 3490.13 41.3948C3462.7 41.3948 3437.91 52.8235 3420.2 71.1345L3420.2 138.752C3420.2 100.196 3451.57 68.8237 3490.13 68.8237C3528.68 68.8237 3560.08 100.196 3560.08 138.752V167.336L3490.13 167.336C3516.37 167.336 3540.21 177.785 3557.74 194.74L3587.48 194.74V138.752Z" fill="#00B53C"/>
<path d="M3252.89 97.3826C3252.89 58.8265 3284.26 27.4542 3322.81 27.4542L3392.74 27.4542L3392.74 138.752C3392.74 112.504 3403.19 88.6666 3420.15 71.1343V0.0253906L3322.79 0.0253906C3269.11 0.0253906 3225.43 43.7055 3225.43 97.3826C3225.43 124.811 3236.86 149.603 3255.17 167.311L3322.79 167.311C3284.26 167.311 3252.89 135.939 3252.89 97.3826Z" fill="#0099DD"/>
<path d="M3392.77 167.311L3420.17 167.311L3420.17 138.727V71.1091C3403.22 88.6415 3392.77 112.478 3392.77 138.727L3392.77 167.311Z" fill="#00B53C"/>
<path d="M3560.05 264.668C3560.05 303.224 3528.68 334.597 3490.1 334.597L3420.17 334.597L3420.17 223.299C3420.17 249.547 3409.72 273.384 3392.77 290.917V362.025L3490.13 362.025C3543.8 362.025 3587.48 318.345 3587.48 264.668C3587.48 237.239 3576.05 212.448 3557.74 194.715L3490.13 194.715C3528.68 194.74 3560.05 226.112 3560.05 264.668Z" fill="#FFB000"/>
<path d="M3420.17 167.311V194.715L3490.1 194.715L3557.72 194.715C3540.19 177.76 3516.35 167.311 3490.1 167.311L3420.17 167.311Z" fill="#FFB000"/>
<g filter="url(#filter10_d_1_1559)">
<path d="M3322.84 293.253C3284.28 293.253 3252.91 261.88 3252.91 223.324V194.74L3322.84 194.74C3296.59 194.74 3272.75 184.291 3255.22 167.336L3225.48 167.336V223.324C3225.48 277.001 3269.16 320.681 3322.84 320.681C3350.27 320.681 3375.06 309.253 3392.77 290.942L3392.77 223.324C3392.77 261.855 3361.4 293.253 3322.84 293.253Z" fill="#E2005C"/>
</g>
<path d="M3392.77 194.74V167.336L3322.84 167.336L3255.22 167.336C3272.75 184.291 3296.59 194.74 3322.84 194.74L3392.77 194.74Z" fill="#0099DD"/>
<path d="M3420.17 194.74L3392.77 194.74V223.324L3392.77 290.941C3409.72 273.409 3420.17 249.572 3420.17 223.324V194.74Z" fill="#E2005C"/>
<path d="M3420.17 167.311L3392.77 167.311V194.715L3420.17 194.715V167.311Z" fill="#FFB000"/>
<path d="M3680.23 0.000274658C3626.56 0.000274658 3582.88 43.6804 3582.88 97.3575C3582.88 124.786 3594.31 149.578 3612.62 167.286H3680.23C3641.68 167.286 3610.31 135.914 3610.31 97.3575C3610.31 58.8014 3641.68 27.404 3680.23 27.404H3708.82V97.3575C3708.82 71.1092 3719.27 47.2723 3736.22 29.74V0.000274658L3680.23 0.000274658Z" fill="#00B53C"/>
<path d="M3638.87 334.597C3600.31 334.597 3568.94 303.224 3568.94 264.668V194.74L3680.23 194.74C3653.99 194.74 3630.15 184.291 3612.62 167.336H3541.51V264.693C3541.51 318.37 3585.19 362.051 3638.87 362.051C3666.29 362.051 3691.09 350.622 3708.79 332.311V264.693C3708.79 303.224 3677.42 334.597 3638.87 334.597Z" fill="#0099DD"/>
<path d="M3708.79 194.715V167.311H3680.21H3612.59C3630.12 184.266 3653.96 194.715 3680.21 194.715H3708.79Z" fill="#00B53C"/>
<path d="M3806.15 27.4292C3844.71 27.4292 3876.08 58.8016 3876.08 97.3828V167.311H3764.78C3791.03 167.311 3814.87 177.76 3832.4 194.715L3903.51 194.715V97.3576C3903.51 43.6806 3859.83 0.000411987 3806.15 0.000411987C3778.72 0.000411987 3753.93 11.4291 3736.2 29.7401V97.3576C3736.22 58.8016 3767.59 27.4292 3806.15 27.4292Z" fill="#FFB000"/>
<path d="M3708.79 167.311H3736.2V97.3827V29.7651C3719.24 47.2974 3708.79 71.1344 3708.79 97.3827V167.311Z" fill="#FFB000"/>
<g filter="url(#filter11_d_1_1559)">
<path d="M3834.73 264.643C3834.73 303.199 3803.36 334.571 3764.81 334.571H3736.22V264.643C3736.22 290.891 3725.77 314.728 3708.82 332.261V362H3764.81C3818.48 362 3862.16 318.32 3862.16 264.643C3862.16 237.214 3850.73 212.423 3832.42 194.715H3764.81C3803.34 194.715 3834.73 226.087 3834.73 264.643Z" fill="#E2005C"/>
</g>
<path d="M3736.22 194.715H3708.82V264.643V332.26C3725.77 314.728 3736.22 290.891 3736.22 264.643V194.715Z" fill="#0099DD"/>
<path d="M3736.22 167.311V194.715H3764.81H3832.42C3814.89 177.76 3791.06 167.311 3764.81 167.311H3736.22Z" fill="#E2005C"/>
<path d="M3708.79 167.311V194.715H3736.2V167.311H3708.79Z" fill="#FFB000"/>
<defs>
<filter id="filter0_d_1_1559" x="40.1533" y="0.050293" width="155.727" height="169.668" filterUnits="userSpaceOnUse" color-interpolation-filters="sRGB">
<feFlood flood-opacity="0" result="BackgroundImageFix"/>
<feColorMatrix in="SourceAlpha" type="matrix" values="0 0 0 0 0 0 0 0 0 0 0 0 0 0 0 0 0 0 127 0" result="hardAlpha"/>
<feOffset dy="1.19095"/>
<feGaussianBlur stdDeviation="0.595477"/>
<feComposite in2="hardAlpha" operator="out"/>
<feColorMatrix type="matrix" values="0 0 0 0 0 0 0 0 0 0 0 0 0 0 0 0 0 0 0.25 0"/>
<feBlend mode="normal" in2="BackgroundImageFix" result="effect1_dropShadow_1_1559"/>
<feBlend mode="normal" in="SourceGraphic" in2="effect1_dropShadow_1_1559" result="shape"/>
</filter>
<filter id="filter1_d_1_1559" x="349.613" y="167.336" width="169.668" height="155.727" filterUnits="userSpaceOnUse" color-interpolation-filters="sRGB">
<feFlood flood-opacity="0" result="BackgroundImageFix"/>
<feColorMatrix in="SourceAlpha" type="matrix" values="0 0 0 0 0 0 0 0 0 0 0 0 0 0 0 0 0 0 127 0" result="hardAlpha"/>
<feOffset dy="1.19095"/>
<feGaussianBlur stdDeviation="0.595477"/>
<feComposite in2="hardAlpha" operator="out"/>
<feColorMatrix type="matrix" values="0 0 0 0 0 0 0 0 0 0 0 0 0 0 0 0 0 0 0.25 0"/>
<feBlend mode="normal" in2="BackgroundImageFix" result="effect1_dropShadow_1_1559"/>
<feBlend mode="normal" in="SourceGraphic" in2="effect1_dropShadow_1_1559" result="shape"/>
</filter>
<filter id="filter2_d_1_1559" x="860.253" y="41.3696" width="169.667" height="155.727" filterUnits="userSpaceOnUse" color-interpolation-filters="sRGB">
<feFlood flood-opacity="0" result="BackgroundImageFix"/>
<feColorMatrix in="SourceAlpha" type="matrix" values="0 0 0 0 0 0 0 0 0 0 0 0 0 0 0 0 0 0 127 0" result="hardAlpha"/>
<feOffset dy="1.19095"/>
<feGaussianBlur stdDeviation="0.595477"/>
<feComposite in2="hardAlpha" operator="out"/>
<feColorMatrix type="matrix" values="0 0 0 0 0 0 0 0 0 0 0 0 0 0 0 0 0 0 0.25 0"/>
<feBlend mode="normal" in2="BackgroundImageFix" result="effect1_dropShadow_1_1559"/>
<feBlend mode="normal" in="SourceGraphic" in2="effect1_dropShadow_1_1559" result="shape"/>
</filter>
<filter id="filter3_d_1_1559" x="1022.88" y="0.0505371" width="155.727" height="169.668" filterUnits="userSpaceOnUse" color-interpolation-filters="sRGB">
<feFlood flood-opacity="0" result="BackgroundImageFix"/>
<feColorMatrix in="SourceAlpha" type="matrix" values="0 0 0 0 0 0 0 0 0 0 0 0 0 0 0 0 0 0 127 0" result="hardAlpha"/>
<feOffset dy="1.19095"/>
<feGaussianBlur stdDeviation="0.595477"/>
<feComposite in2="hardAlpha" operator="out"/>
<feColorMatrix type="matrix" values="0 0 0 0 0 0 0 0 0 0 0 0 0 0 0 0 0 0 0.25 0"/>
<feBlend mode="normal" in2="BackgroundImageFix" result="effect1_dropShadow_1_1559"/>
<feBlend mode="normal" in="SourceGraphic" in2="effect1_dropShadow_1_1559" result="shape"/>
</filter>
<filter id="filter4_d_1_1559" x="1297.54" y="167.336" width="169.667" height="155.727" filterUnits="userSpaceOnUse" color-interpolation-filters="sRGB">
<feFlood flood-opacity="0" result="BackgroundImageFix"/>
<feColorMatrix in="SourceAlpha" type="matrix" values="0 0 0 0 0 0 0 0 0 0 0 0 0 0 0 0 0 0 127 0" result="hardAlpha"/>
<feOffset dy="1.19095"/>
<feGaussianBlur stdDeviation="0.595477"/>
<feComposite in2="hardAlpha" operator="out"/>
<feColorMatrix type="matrix" values="0 0 0 0 0 0 0 0 0 0 0 0 0 0 0 0 0 0 0.25 0"/>
<feBlend mode="normal" in2="BackgroundImageFix" result="effect1_dropShadow_1_1559"/>
<feBlend mode="normal" in="SourceGraphic" in2="effect1_dropShadow_1_1559" result="shape"/>
</filter>
<filter id="filter5_d_1_1559" x="1780.87" y="194.715" width="155.727" height="169.668" filterUnits="userSpaceOnUse" color-interpolation-filters="sRGB">
<feFlood flood-opacity="0" result="BackgroundImageFix"/>
<feColorMatrix in="SourceAlpha" type="matrix" values="0 0 0 0 0 0 0 0 0 0 0 0 0 0 0 0 0 0 127 0" result="hardAlpha"/>
<feOffset dy="1.19095"/>
<feGaussianBlur stdDeviation="0.595477"/>
<feComposite in2="hardAlpha" operator="out"/>
<feColorMatrix type="matrix" values="0 0 0 0 0 0 0 0 0 0 0 0 0 0 0 0 0 0 0.25 0"/>
<feBlend mode="normal" in2="BackgroundImageFix" result="effect1_dropShadow_1_1559"/>
<feBlend mode="normal" in="SourceGraphic" in2="effect1_dropShadow_1_1559" result="shape"/>
</filter>
<filter id="filter6_d_1_1559" x="1966.91" y="0.050293" width="155.727" height="169.668" filterUnits="userSpaceOnUse" color-interpolation-filters="sRGB">
<feFlood flood-opacity="0" result="BackgroundImageFix"/>
<feColorMatrix in="SourceAlpha" type="matrix" values="0 0 0 0 0 0 0 0 0 0 0 0 0 0 0 0 0 0 127 0" result="hardAlpha"/>
<feOffset dy="1.19095"/>
<feGaussianBlur stdDeviation="0.595477"/>
<feComposite in2="hardAlpha" operator="out"/>
<feColorMatrix type="matrix" values="0 0 0 0 0 0 0 0 0 0 0 0 0 0 0 0 0 0 0.25 0"/>
<feBlend mode="normal" in2="BackgroundImageFix" result="effect1_dropShadow_1_1559"/>
<feBlend mode="normal" in="SourceGraphic" in2="effect1_dropShadow_1_1559" result="shape"/>
</filter>
<filter id="filter7_d_1_1559" x="2276.37" y="167.336" width="169.667" height="155.727" filterUnits="userSpaceOnUse" color-interpolation-filters="sRGB">
<feFlood flood-opacity="0" result="BackgroundImageFix"/>
<feColorMatrix in="SourceAlpha" type="matrix" values="0 0 0 0 0 0 0 0 0 0 0 0 0 0 0 0 0 0 127 0" result="hardAlpha"/>
<feOffset dy="1.19095"/>
<feGaussianBlur stdDeviation="0.595477"/>
<feComposite in2="hardAlpha" operator="out"/>
<feColorMatrix type="matrix" values="0 0 0 0 0 0 0 0 0 0 0 0 0 0 0 0 0 0 0.25 0"/>
<feBlend mode="normal" in2="BackgroundImageFix" result="effect1_dropShadow_1_1559"/>
<feBlend mode="normal" in="SourceGraphic" in2="effect1_dropShadow_1_1559" result="shape"/>
</filter>
<filter id="filter8_d_1_1559" x="2787.01" y="41.3696" width="169.667" height="155.727" filterUnits="userSpaceOnUse" color-interpolation-filters="sRGB">
<feFlood flood-opacity="0" result="BackgroundImageFix"/>
<feColorMatrix in="SourceAlpha" type="matrix" values="0 0 0 0 0 0 0 0 0 0 0 0 0 0 0 0 0 0 127 0" result="hardAlpha"/>
<feOffset dy="1.19095"/>
<feGaussianBlur stdDeviation="0.595477"/>
<feComposite in2="hardAlpha" operator="out"/>
<feColorMatrix type="matrix" values="0 0 0 0 0 0 0 0 0 0 0 0 0 0 0 0 0 0 0.25 0"/>
<feBlend mode="normal" in2="BackgroundImageFix" result="effect1_dropShadow_1_1559"/>
<feBlend mode="normal" in="SourceGraphic" in2="effect1_dropShadow_1_1559" result="shape"/>
</filter>
<filter id="filter9_d_1_1559" x="2949.64" y="0.0505371" width="155.727" height="169.668" filterUnits="userSpaceOnUse" color-interpolation-filters="sRGB">
<feFlood flood-opacity="0" result="BackgroundImageFix"/>
<feColorMatrix in="SourceAlpha" type="matrix" values="0 0 0 0 0 0 0 0 0 0 0 0 0 0 0 0 0 0 127 0" result="hardAlpha"/>
<feOffset dy="1.19095"/>
<feGaussianBlur stdDeviation="0.595477"/>
<feComposite in2="hardAlpha" operator="out"/>
<feColorMatrix type="matrix" values="0 0 0 0 0 0 0 0 0 0 0 0 0 0 0 0 0 0 0.25 0"/>
<feBlend mode="normal" in2="BackgroundImageFix" result="effect1_dropShadow_1_1559"/>
<feBlend mode="normal" in="SourceGraphic" in2="effect1_dropShadow_1_1559" result="shape"/>
</filter>
<filter id="filter10_d_1_1559" x="3224.29" y="167.336" width="169.667" height="155.727" filterUnits="userSpaceOnUse" color-interpolation-filters="sRGB">
<feFlood flood-opacity="0" result="BackgroundImageFix"/>
<feColorMatrix in="SourceAlpha" type="matrix" values="0 0 0 0 0 0 0 0 0 0 0 0 0 0 0 0 0 0 127 0" result="hardAlpha"/>
<feOffset dy="1.19095"/>
<feGaussianBlur stdDeviation="0.595477"/>
<feComposite in2="hardAlpha" operator="out"/>
<feColorMatrix type="matrix" values="0 0 0 0 0 0 0 0 0 0 0 0 0 0 0 0 0 0 0.25 0"/>
<feBlend mode="normal" in2="BackgroundImageFix" result="effect1_dropShadow_1_1559"/>
<feBlend mode="normal" in="SourceGraphic" in2="effect1_dropShadow_1_1559" result="shape"/>
</filter>
<filter id="filter11_d_1_1559" x="3707.63" y="194.715" width="155.727" height="169.668" filterUnits="userSpaceOnUse" color-interpolation-filters="sRGB">
<feFlood flood-opacity="0" result="BackgroundImageFix"/>
<feColorMatrix in="SourceAlpha" type="matrix" values="0 0 0 0 0 0 0 0 0 0 0 0 0 0 0 0 0 0 127 0" result="hardAlpha"/>
<feOffset dy="1.19095"/>
<feGaussianBlur stdDeviation="0.595477"/>
<feComposite in2="hardAlpha" operator="out"/>
<feColorMatrix type="matrix" values="0 0 0 0 0 0 0 0 0 0 0 0 0 0 0 0 0 0 0.25 0"/>
<feBlend mode="normal" in2="BackgroundImageFix" result="effect1_dropShadow_1_1559"/>
<feBlend mode="normal" in="SourceGraphic" in2="effect1_dropShadow_1_1559" result="shape"/>
6_304"/>
<feBlend mode="normal" in="SourceGraphic" in2="effect1_dropShadow_216_304" result="shape"/>
</filter>
</defs>
</svg>
