<svg width="1920" height="277" viewBox="0 0 1920 277" fill="none" xmlns="http://www.w3.org/2000/svg">
<path d="M-15 276.832V0H96.9379C179.983 0 243.282 56.546 243.282 138.437C243.282 220.286 180.026 276.874 96.9379 276.874H-15V276.832ZM54.1972 211.567H96.8951C144.337 211.567 173.999 181.904 173.999 138.394C173.999 94.8844 144.337 65.2224 96.8951 65.2224H54.1972V211.567Z" fill="white"/>
<path d="M308.462 276.832V0H469.039V63.2562H377.702V104.8H464.295V168.057H377.702V213.533H471.048V276.789H308.462V276.832Z" fill="white"/>
<path d="M645.813 105.228C688.127 115.913 740.74 129.248 740.74 191.778C740.74 240.587 697.615 276.832 634.359 276.832C590.079 276.832 556.058 261.573 528.362 231.441L575.804 188.743C592.003 206.651 608.629 215.798 634.316 215.798C662.012 215.798 671.885 206.267 671.885 193.701C671.885 178.827 645.77 173.869 615.724 165.877C575.761 155.192 534.26 137.283 534.26 81.5921C534.26 32.0129 575.377 0 632.735 0C680.177 0 707.873 16.7972 733.987 43.0827L686.93 83.9C673.894 70.9496 655.686 61.0339 631.965 61.0339C612.176 61.0339 603.5 68.6415 603.5 80.0961C603.5 93.7731 622.05 99.5004 645.813 105.228Z" fill="white"/>
<path d="M780.235 276.832L874.35 139.207L781.432 0H863.28L914.312 79.1131L965.345 0H1047.19L954.232 139.207L1048.35 276.832H966.499L914.312 198.915L862.126 276.832H780.235Z" fill="white"/>
<path d="M1101.73 276.832V0H1213.67C1296.71 0 1360.01 56.546 1360.01 138.437C1360.01 220.286 1296.75 276.874 1213.67 276.874H1101.73V276.832ZM1170.97 211.567H1213.67C1261.11 211.567 1290.77 181.904 1290.77 138.394C1290.77 94.8844 1261.11 65.2224 1213.67 65.2224H1170.97V211.567Z" fill="white"/>
<path d="M1425.23 276.832V0H1585.81V63.2562H1494.47V104.8H1581.07V168.057H1494.47V213.533H1587.82V276.789H1425.23V276.832Z" fill="white"/>
<path d="M1741.22 276.832L1633.25 0H1707.62L1776.05 182.717H1777.25L1846.06 0H1920L1812.42 276.832H1741.22Z" fill="white"/>
</svg>
