<svg width="422" height="476" viewBox="0 0 572 626" fill="none" xmlns="http://www.w3.org/2000/svg">
<g opacity="0.06">
<path d="M711 187.408C711 81.9608 625.207 -3.7959 519.797 -3.7959C465.907 -3.7959 417.236 18.6334 382.445 54.609V187.408C382.445 111.681 444.07 50.0565 519.797 50.0565C595.56 50.0565 657.148 111.681 657.148 187.408V243.518H519.797C571.354 243.518 618.175 264.06 652.596 297.371H711V187.408Z" fill="#00B53C"/>
<path d="M53.8524 106.167C53.8524 30.4403 115.477 -31.1846 191.204 -31.1846H328.555V187.445C328.555 135.887 349.097 89.0674 382.408 54.6462V-85H191.204C85.7567 -85 0 0.75676 0 106.204C0 160.093 22.4291 208.764 58.4048 243.555H191.204C115.477 243.518 53.8524 181.893 53.8524 106.167Z" fill="#0099DD"/>
<path d="M328.593 243.518H382.445V187.408V54.6091C349.171 89.0303 328.593 135.85 328.593 187.408V243.518Z" fill="#00B53C"/>
<path d="M657.185 434.722C657.185 510.449 595.56 572.074 519.833 572.074H382.445V353.444C382.445 405.002 361.903 451.822 328.593 486.243V625.889H519.797C625.244 625.889 711 540.132 711 434.685C711 380.796 688.571 332.088 652.596 297.334H519.797C595.56 297.371 657.185 358.996 657.185 434.722Z" fill="#FFB000"/>
<path d="M382.445 243.518V297.371H519.797H652.596C618.175 264.097 571.354 243.518 519.797 243.518H382.445Z" fill="#FFB000"/>
<path d="M191.241 490.869C115.514 490.869 53.8895 429.244 53.8895 353.518V297.371H191.241C139.683 297.371 92.863 276.829 58.4419 243.518H0.0371094V353.481C0.0371094 458.928 85.7938 544.685 191.241 544.685C245.13 544.685 293.838 522.255 328.592 486.28V353.481C328.592 429.244 266.967 490.869 191.241 490.869Z" fill="#E2005C"/>
<path d="M328.593 297.371V243.518H191.241H58.4421C92.8633 276.792 139.683 297.371 191.241 297.371H328.593Z" fill="#0099DD"/>
<path d="M382.445 297.371H328.593V353.481V486.28C361.866 451.859 382.445 405.039 382.445 353.481V297.371Z" fill="#E2005C"/>
<path d="M382.445 243.518H328.593V297.371H382.445V243.518Z" fill="#FFB000"/>
</g>
</svg>
