<svg width="266" height="63" viewBox="0 0 266 63" fill="none" xmlns="http://www.w3.org/2000/svg">
<path d="M61.1084 24.3874C61.1084 15.3276 53.7359 7.95508 44.676 7.95508C40.0465 7.95508 35.8621 9.88407 32.8732 12.9747V24.3874C32.8732 17.8798 38.1684 12.5846 44.676 12.5846C51.1837 12.5846 56.4831 17.8798 56.4831 24.3874V29.212H44.676C49.1063 29.212 53.1296 30.9757 56.0888 33.8373H61.1084V24.3874Z" fill="#00B53C"/>
<path d="M4.63379 17.405C4.63379 10.8974 9.92894 5.6022 16.4366 5.6022H28.2394V24.3875C28.2394 19.9572 30.0031 15.9339 32.8647 12.9747V0.972656H16.4324C7.37252 0.972656 0 8.34518 0 17.405C0 22.0346 1.92898 26.219 5.01959 29.2078H16.4324C9.92895 29.2078 4.63379 23.9127 4.63379 17.405Z" fill="#0099DD"/>
<path d="M28.2441 29.208H32.8695V24.3835V12.9707C30.0078 15.9299 28.2441 19.9532 28.2441 24.3835V29.208Z" fill="#00B53C"/>
<path d="M56.4793 45.641C56.4793 52.1487 51.1842 57.4439 44.6723 57.4439H32.8695V38.6586C32.8695 43.0889 31.1058 47.1121 28.2441 50.0713V62.0734H44.6765C53.7364 62.0734 61.1089 54.7009 61.1089 45.641C61.1089 41.0115 59.1799 36.8271 56.0893 33.834H44.6765C51.1842 33.8382 56.4793 39.1334 56.4793 45.641Z" fill="#FFB000"/>
<path d="M32.8691 29.207V33.8324H44.672H56.0847C53.1256 30.9707 49.1022 29.207 44.672 29.207H32.8691Z" fill="#FFB000"/>
<path d="M16.4402 50.4656C9.93252 50.4656 4.63737 45.1704 4.63737 38.6628V33.8382H16.4402C12.0099 33.8382 7.98659 32.0746 5.02741 29.2129H0.0078125V38.6628C0.0078125 47.7226 7.38033 55.0951 16.4402 55.0951C21.0697 55.0951 25.2541 53.1662 28.243 50.0756V38.6628C28.243 45.1662 22.9478 50.4656 16.4402 50.4656Z" fill="#E2005C"/>
<path d="M28.2429 33.8382V29.2129H16.4401H5.02734C7.98653 32.0746 12.0098 33.8382 16.4401 33.8382H28.2429Z" fill="#0099DD"/>
<path d="M32.8695 33.8379H28.2441V38.6625V50.0752C31.1058 47.1161 32.8695 43.0928 32.8695 38.6625V33.8379Z" fill="#E2005C"/>
<path d="M32.8695 29.207H28.2441V33.8324H32.8695V29.207Z" fill="#FFB000"/>
<path d="M74.0645 45.2543V17.7949H85.1677C93.4051 17.7949 99.6838 23.4038 99.6838 31.5267C99.6838 39.6454 93.4094 45.2585 85.1677 45.2585H74.0645V45.2543ZM80.9282 38.7805H85.1635C89.8694 38.7805 92.8116 35.8383 92.8116 31.5225C92.8116 27.2067 89.8694 24.2644 85.1635 24.2644H80.9282V38.7805Z" fill="white"/>
<path d="M106.148 45.2543V17.7949H122.076V24.0694H113.016V28.1902H121.606V34.4647H113.016V38.9756H122.276V45.25H106.148V45.2543Z" fill="white"/>
<path d="M139.611 28.2326C143.808 29.2925 149.027 30.6152 149.027 36.8176C149.027 41.6592 144.749 45.2543 138.475 45.2543C134.083 45.2543 130.708 43.7408 127.961 40.7519L132.667 36.5166C134.274 38.293 135.923 39.2002 138.471 39.2002C141.218 39.2002 142.197 38.2548 142.197 37.0084C142.197 35.5331 139.607 35.0413 136.627 34.2485C132.663 33.1886 128.546 31.4123 128.546 25.8882C128.546 20.9703 132.624 17.7949 138.314 17.7949C143.02 17.7949 145.767 19.4611 148.357 22.0684L143.69 26.1171C142.397 24.8325 140.59 23.849 138.238 23.849C136.275 23.849 135.414 24.6036 135.414 25.7398C135.414 27.0964 137.254 27.6645 139.611 28.2326Z" fill="white"/>
<path d="M152.945 45.2543L162.281 31.603L153.064 17.7949H161.183L166.245 25.6423L171.307 17.7949H179.425L170.204 31.603L179.54 45.2543H171.421L166.245 37.5256L161.068 45.2543H152.945Z" fill="white"/>
<path d="M184.836 45.2543V17.7949H195.939C204.177 17.7949 210.455 23.4038 210.455 31.5267C210.455 39.6454 204.181 45.2585 195.939 45.2585H184.836V45.2543ZM191.704 38.7805H195.939C200.645 38.7805 203.587 35.8383 203.587 31.5225C203.587 27.2067 200.645 24.2644 195.939 24.2644H191.704V38.7805Z" fill="white"/>
<path d="M216.924 45.2543V17.7949H232.852V24.0694H223.792V28.1902H232.381V34.4647H223.792V38.9756H233.051V45.25H216.924V45.2543Z" fill="white"/>
<path d="M248.266 45.2543L237.557 17.7949H244.933L251.721 35.9189H251.84L258.665 17.7949H266L255.329 45.2543H248.266Z" fill="white"/>
</svg>
