<svg width="849" height="849" viewBox="0 0 849 849" fill="none" xmlns="http://www.w3.org/2000/svg">
<path d="M848.284 325.035C848.284 199.27 745.941 96.9268 620.176 96.9268C555.91 96.9268 497.824 123.704 456.334 166.607V325.035C456.334 234.698 529.839 161.193 620.176 161.193C710.513 161.193 784.077 234.698 784.077 325.035V392.008H620.176C681.676 392.008 737.526 416.491 778.604 456.216H848.284V325.035Z" fill="#00B53C"/>
<path d="M64.3245 228.109C64.3245 137.771 137.83 64.2658 228.167 64.2658H392.009V325.037C392.009 263.537 416.491 207.687 456.216 166.609V0H228.108C102.343 0 0 102.343 0 228.109C0 292.374 26.7773 350.461 69.68 391.951H228.108C137.83 391.951 64.3245 318.446 64.3245 228.109Z" fill="#0099DD"/>
<path d="M392.068 391.95H456.275V324.977V166.549C416.551 207.627 392.068 263.477 392.068 324.977V391.95Z" fill="#00B53C"/>
<path d="M784.02 620.058C784.02 710.395 710.514 783.9 620.119 783.9H456.277V523.129C456.277 584.629 431.794 640.479 392.07 681.558V848.166H620.178C745.943 848.166 848.285 745.823 848.285 620.058C848.285 555.792 821.508 497.705 778.605 456.156H620.178C710.514 456.215 784.02 529.721 784.02 620.058Z" fill="#FFB000"/>
<path d="M456.275 391.95V456.157H620.117H778.545C737.467 416.433 681.617 391.95 620.117 391.95H456.275Z" fill="#FFB000"/>
<path d="M228.226 687.032C137.889 687.032 64.3838 613.527 64.3838 523.19V456.217H228.226C166.726 456.217 110.876 431.735 69.7982 392.01H0.118042V523.19C0.118042 648.956 102.461 751.298 228.226 751.298C292.492 751.298 350.578 724.521 392.068 681.618V523.19C392.068 613.468 318.563 687.032 228.226 687.032Z" fill="#E2005C"/>
<path d="M392.068 456.217V392.01H228.226H69.7984C110.877 431.735 166.726 456.217 228.226 456.217H392.068Z" fill="#0099DD"/>
<path d="M456.275 456.216H392.068V523.189V681.617C431.793 640.539 456.275 584.689 456.275 523.189V456.216Z" fill="#E2005C"/>
<path d="M456.277 391.95H392.07V456.157H456.277V391.95Z" fill="#FFB000"/>
</svg>
