<svg width="65" height="49" viewBox="0 0 65 49" fill="none" xmlns="http://www.w3.org/2000/svg">
<path d="M17.7631 1.65766C19.5305 0.332181 22.0376 0.690342 23.3631 2.45762C24.6887 4.22494 24.3303 6.73214 22.5632 8.05766C16.3073 12.7496 12.7194 17.3114 10.6716 21.2962C11.7877 21.0098 12.9576 20.8574 14.1631 20.8574C21.8951 20.8574 28.1631 27.1254 28.1631 34.8574C28.1631 42.5894 21.8951 48.8574 14.1631 48.8574C6.50849 48.8574 0.28869 42.7142 0.16497 35.089C-0.19583 31.629 -0.143151 26.525 2.19525 20.6322C4.58501 14.6101 9.25277 8.0405 17.7631 1.65766ZM53.7631 1.65766C55.5303 0.332181 58.0375 0.690342 59.3631 2.45762C60.6887 4.22494 60.3303 6.73214 58.5631 8.05766C52.3071 12.7496 48.7195 17.3114 46.6715 21.2962C47.7875 21.0098 48.9575 20.8574 50.1631 20.8574C57.8951 20.8574 64.1631 27.1254 64.1631 34.8574C64.1631 42.5894 57.8951 48.8574 50.1631 48.8574C42.5083 48.8574 36.2887 42.7142 36.1651 35.089C35.8043 31.629 35.8567 26.525 38.1951 20.6322C40.5851 14.6101 45.2527 8.0405 53.7631 1.65766Z" fill="white"/>
</svg>
