<svg width="42" height="42" viewBox="0 0 42 42" fill="none" xmlns="http://www.w3.org/2000/svg">
<mask id="mask0_1_2194" style="mask-type:alpha" maskUnits="userSpaceOnUse" x="0" y="0" width="42" height="42">
<rect width="42" height="42" fill="#D9D9D9"/>
</mask>
<g mask="url(#mask0_1_2194)">
<path d="M17.2273 23.4368C16.8589 23.4288 16.507 23.2827 16.2412 23.0275L13.6366 20.4229C13.3753 20.1612 13.2285 19.8066 13.2285 19.4368C13.2285 19.0671 13.3753 18.7124 13.6366 18.4508L16.4459 15.6415C16.7075 15.3802 17.0622 15.2334 17.4319 15.2334C17.8017 15.2334 18.1564 15.3802 18.418 15.6415C18.5496 15.7697 18.6543 15.9231 18.7257 16.0924C18.7971 16.2618 18.8339 16.4437 18.8339 16.6275C18.8339 16.8113 18.7971 16.9933 18.7257 17.1626C18.6543 17.332 18.5496 17.4853 18.418 17.6136L16.5575 19.474L18.1761 21.074C18.4342 21.3411 18.5784 21.698 18.5784 22.0694C18.5784 22.4408 18.4342 22.7976 18.1761 23.0647C17.9143 23.298 17.5778 23.4299 17.2273 23.4368Z" fill="white"/>
<path d="M23.888 23.4369C23.5196 23.4289 23.1677 23.2828 22.9019 23.0276C22.6439 22.7605 22.4997 22.4037 22.4997 22.0323C22.4997 21.6609 22.6439 21.304 22.9019 21.0369L24.5205 19.4369L22.6601 17.5765C22.5284 17.4482 22.4238 17.2949 22.3524 17.1255C22.2809 16.9562 22.2441 16.7742 22.2441 16.5904C22.2441 16.4066 22.2809 16.2247 22.3524 16.0553C22.4238 15.886 22.5284 15.7326 22.6601 15.6044C22.9217 15.3431 23.2764 15.1963 23.6461 15.1963C24.0159 15.1963 24.3705 15.3431 24.6322 15.6044L27.4415 18.4137C27.7028 18.6753 27.8496 19.0299 27.8496 19.3997C27.8496 19.7695 27.7028 20.1241 27.4415 20.3858L24.8368 22.9904C24.5862 23.2509 24.2484 23.4098 23.888 23.4369Z" fill="white"/>
<path d="M26.1395 41H14.9767C13.1264 41 11.3518 40.265 10.0434 38.9566C8.73505 37.6482 8 35.8736 8 34.0233V7.97674C8 6.1264 8.73505 4.35183 10.0434 3.04344C11.3518 1.73505 13.1264 1 14.9767 1H26.1395C27.9899 1 29.7644 1.73505 31.0728 3.04344C32.3812 4.35183 33.1163 6.1264 33.1163 7.97674V34.0233C33.1163 35.8736 32.3812 37.6482 31.0728 38.9566C29.7644 40.265 27.9899 41 26.1395 41ZM14.9767 3.7907C13.8665 3.7907 12.8018 4.23173 12.0168 5.01676C11.2317 5.8018 10.7907 6.86654 10.7907 7.97674V34.0233C10.7907 35.1335 11.2317 36.1982 12.0168 36.9832C12.8018 37.7683 13.8665 38.2093 14.9767 38.2093H26.1395C27.2497 38.2093 28.3145 37.7683 29.0995 36.9832C29.8846 36.1982 30.3256 35.1335 30.3256 34.0233V7.97674C30.3256 6.86654 29.8846 5.8018 29.0995 5.01676C28.3145 4.23173 27.2497 3.7907 26.1395 3.7907H14.9767Z" fill="white"/>
<path d="M20.5581 35.4186C20.2823 35.4183 20.0128 35.3364 19.7836 35.183C19.5543 35.0297 19.3757 34.8118 19.2702 34.557C19.1647 34.3022 19.137 34.0218 19.1908 33.7513C19.2445 33.4808 19.3772 33.2323 19.5721 33.0372C19.7343 32.8747 19.9341 32.7549 20.1537 32.6881C20.3734 32.6214 20.6061 32.6099 20.8312 32.6546C21.0564 32.6993 21.267 32.7989 21.4445 32.9445C21.622 33.0902 21.7608 33.2773 21.8486 33.4894C21.9364 33.7015 21.9705 33.932 21.948 34.1604C21.9254 34.3889 21.8468 34.6082 21.7192 34.799C21.5915 34.9898 21.4188 35.1462 21.2163 35.2543C21.0138 35.3623 20.7877 35.4188 20.5581 35.4186Z" fill="white"/>
</g>
</svg>
