<svg width="19" height="18" viewBox="0 0 19 18" fill="none" xmlns="http://www.w3.org/2000/svg">
<path d="M9.69506 4.5413C8.80168 4.5413 7.92837 4.80621 7.18555 5.30255C6.44274 5.79888 5.86378 6.50434 5.5219 7.32972C5.18002 8.15509 5.09057 9.06331 5.26486 9.93952C5.43914 10.8157 5.86935 11.6206 6.50106 12.2523C7.13278 12.884 7.93763 13.3142 8.81384 13.4885C9.69005 13.6628 10.5983 13.5733 11.4236 13.2315C12.249 12.8896 12.9545 12.3106 13.4508 11.5678C13.9471 10.825 14.2121 9.95167 14.2121 9.0583C14.213 8.46486 14.0968 7.87707 13.8701 7.32862C13.6434 6.78018 13.3107 6.28187 12.8911 5.86224C12.4715 5.44261 11.9732 5.10993 11.4247 4.88326C10.8763 4.65658 10.2885 4.54038 9.69506 4.5413ZM9.69506 11.9943C9.11438 11.9943 8.54673 11.8221 8.06391 11.4995C7.58109 11.1769 7.20477 10.7183 6.98255 10.1819C6.76033 9.64537 6.70219 9.05504 6.81548 8.48551C6.92876 7.91598 7.20839 7.39284 7.619 6.98223C8.0296 6.57162 8.55275 6.292 9.12228 6.17871C9.69181 6.06542 10.2821 6.12357 10.8186 6.34579C11.3551 6.56801 11.8136 6.94432 12.1363 7.42714C12.4589 7.90997 12.6311 8.47761 12.6311 9.0583C12.6295 9.83648 12.3196 10.5823 11.7694 11.1326C11.2191 11.6829 10.4733 11.9927 9.69506 11.9943ZM15.4501 4.3563C15.4501 4.56476 15.3882 4.76854 15.2724 4.94187C15.1566 5.1152 14.992 5.25029 14.7994 5.33007C14.6068 5.40984 14.3949 5.43071 14.1904 5.39005C13.986 5.34938 13.7982 5.24899 13.6508 5.10159C13.5034 4.95418 13.403 4.76638 13.3623 4.56192C13.3216 4.35747 13.3425 4.14554 13.4223 3.95295C13.5021 3.76036 13.6372 3.59574 13.8105 3.47993C13.9838 3.36411 14.1876 3.3023 14.3961 3.3023C14.5346 3.3019 14.6718 3.32889 14.7999 3.38172C14.9279 3.43455 15.0443 3.51217 15.1422 3.61012C15.2402 3.70807 15.3178 3.82442 15.3706 3.95248C15.4235 4.08054 15.4505 4.21777 15.4501 4.3563ZM18.4421 5.4243C18.471 4.05481 17.9598 2.72894 17.0191 1.7333C16.0214 0.795672 14.6969 0.285024 13.3281 0.310297C11.8741 0.227297 7.51406 0.227297 6.06006 0.310297C4.69114 0.283099 3.36594 0.792789 2.36806 1.7303C1.42814 2.72768 0.917182 4.0541 0.945062 5.4243C0.862062 6.8783 0.862062 11.2383 0.945062 12.6923C0.916669 14.0611 1.4278 15.3861 2.36806 16.3813C3.36578 17.3181 4.68967 17.8287 6.05806 17.8043C7.51206 17.8873 11.8721 17.8873 13.3261 17.8043C14.6956 17.8332 16.0214 17.3221 17.0171 16.3813C17.9547 15.3837 18.4653 14.0591 18.4401 12.6903C18.5241 11.2353 18.5241 6.8803 18.4421 5.4243ZM16.5581 14.2503C16.409 14.6287 16.1839 14.9725 15.8966 15.2605C15.6094 15.5484 15.2661 15.7743 14.8881 15.9243C13.7281 16.3843 10.9771 16.2783 9.69506 16.2783C8.41306 16.2783 5.65806 16.3783 4.50206 15.9243C4.12326 15.7748 3.77921 15.5491 3.49125 15.2611C3.20329 14.9731 2.97756 14.6291 2.82806 14.2503C2.36806 13.0903 2.47406 10.3393 2.47406 9.0573C2.47406 7.7753 2.37406 5.0203 2.82806 3.8643C2.97756 3.48521 3.20339 3.14091 3.49153 2.85277C3.77968 2.56462 4.12398 2.33879 4.50306 2.1893C5.66306 1.7293 8.41406 1.8353 9.69606 1.8353C10.9781 1.8353 13.7331 1.7353 14.8891 2.1893C15.2671 2.33959 15.6103 2.56589 15.8974 2.85418C16.1845 3.14246 16.4094 3.4866 16.5581 3.8653C17.0181 5.0253 16.9121 7.7763 16.9121 9.0583C16.9121 10.3403 17.0231 13.0953 16.5581 14.2503Z" fill="white"/>
</svg>
