<svg width="19" height="19" viewBox="0 0 19 19" fill="none" xmlns="http://www.w3.org/2000/svg">
<path d="M4.32174 18.5951H0.54274V6.42811H4.32174V18.5951ZM2.43074 4.76911C1.99542 4.77148 1.56917 4.64465 1.20597 4.40467C0.842757 4.16468 0.558911 3.82234 0.390354 3.42097C0.221797 3.01959 0.176108 2.57723 0.25907 2.14988C0.342032 1.72253 0.549914 1.3294 0.856406 1.02025C1.1629 0.711094 1.55422 0.49982 1.98084 0.413166C2.40745 0.326513 2.85019 0.368375 3.25301 0.533456C3.65582 0.698536 4.00061 0.979412 4.24372 1.34053C4.48684 1.70165 4.61735 2.12678 4.61874 2.56211C4.61902 3.14424 4.38919 3.70289 3.97935 4.1163C3.5695 4.52971 3.01286 4.76436 2.43074 4.76911ZM18.4617 18.5951H14.6917V12.6721C14.6917 11.2611 14.6637 9.45011 12.7277 9.45011C10.7637 9.45011 10.4627 10.9841 10.4627 12.5701V18.5941H6.68874V6.42811H10.3127V8.08811H10.3657C10.7282 7.46745 11.2524 6.95684 11.8824 6.61077C12.5124 6.26471 13.2245 6.09616 13.9427 6.12311C17.7667 6.12311 18.4697 8.64111 18.4697 11.9111V18.5941L18.4617 18.5951Z" fill="white"/>
</svg>
