<svg width="42" height="42" viewBox="0 0 42 42" fill="none" xmlns="http://www.w3.org/2000/svg">
<mask id="mask0_1_2232" style="mask-type:alpha" maskUnits="userSpaceOnUse" x="0" y="0" width="42" height="42">
<rect width="42" height="42" fill="#D9D9D9"/>
</mask>
<g mask="url(#mask0_1_2232)">
<path fill-rule="evenodd" clip-rule="evenodd" d="M20.5625 39.125C10.3107 39.125 2 30.8143 2 20.5625C2 10.3107 10.3107 2 20.5625 2C30.8143 2 39.125 10.3107 39.125 20.5625C39.125 30.8143 30.8143 39.125 20.5625 39.125ZM25.7256 6.78042C24.1073 6.19326 22.3987 5.89388 20.6771 5.89583C18.8826 5.89372 17.1029 6.21912 15.4253 6.85604C17.0159 8.56314 18.6262 10.2518 20.2559 11.9215C20.4323 12.1026 20.7238 12.1063 20.9046 11.9303C20.9046 11.9303 23.8375 9.1264 25.7259 6.78042H25.7256ZM25.7256 34.6551C23.8375 32.3091 20.9017 29.461 20.9017 29.461C20.859 29.4192 20.8084 29.3862 20.7529 29.364C20.6974 29.3418 20.638 29.3308 20.5782 29.3317C20.5184 29.3325 20.4594 29.3453 20.4045 29.3691C20.3497 29.3929 20.3001 29.4273 20.2586 29.4704C20.2586 29.4704 17.9165 31.9007 15.4255 34.5795C17.103 35.2164 18.8827 35.5418 20.6771 35.5397C22.3987 35.5416 24.1073 35.2423 25.7256 34.6551ZM11.8331 8.76752C11.8331 8.76752 5.87017 12.8224 5.87017 20.5783C5.87017 28.3345 11.8331 32.8307 11.8331 32.8307L20.562 23.7129L29.3565 32.4876C29.3565 32.4876 35.6332 27.5869 35.6332 20.5559C35.6332 13.5246 29.2763 8.71298 29.2763 8.71298L23.3932 14.7446L26.4617 17.9156L29.4665 15.239C29.4665 15.239 31.056 17.7041 31.0787 20.5449C31.1012 23.3856 29.5541 26.252 29.5541 26.252L20.5728 17.329L11.9802 26.1954C11.9802 26.1954 10.2193 23.5348 10.2271 20.4658C10.2351 17.3966 11.8331 14.7444 11.8331 14.7444L14.755 17.6062L18.1915 14.7167L11.8331 8.76752Z" fill="white"/>
</g>
</svg>
