<svg width="25" height="25" viewBox="0 0 25 25" fill="none" xmlns="http://www.w3.org/2000/svg">
<path d="M8.0514 1.20222C7.67544 0.294057 6.68428 -0.18932 5.73705 0.0694573L1.44037 1.24128C0.590794 1.47565 0 2.2471 0 3.12596C0 15.2055 9.79449 25 21.874 25C22.7529 25 23.5244 24.4092 23.7587 23.5596L24.9305 19.2629C25.1893 18.3157 24.7059 17.3246 23.7978 16.9486L19.1105 14.9956C18.3146 14.6635 17.3918 14.893 16.8498 15.5619L14.8773 17.9691C11.4399 16.3432 8.65685 13.5601 7.03094 10.1227L9.43806 8.15504C10.107 7.60819 10.3365 6.69026 10.0044 5.8944L8.0514 1.2071V1.20222Z" fill="white"/>
</svg>
