<svg width="42" height="42" viewBox="0 0 42 42" fill="none" xmlns="http://www.w3.org/2000/svg">
<mask id="mask0_1_2240" style="mask-type:alpha" maskUnits="userSpaceOnUse" x="0" y="0" width="42" height="42">
<rect width="42" height="42" fill="#D9D9D9"/>
</mask>
<g mask="url(#mask0_1_2240)">
<path d="M38.6735 37.9075L27.4726 26.6386C29.5602 24.1384 30.8178 20.9212 30.8178 17.4089C30.8178 9.45057 24.3672 3 16.4089 3C8.45057 3 2 9.45057 2 17.4089C2 25.3672 8.45057 31.8178 16.4089 31.8178C20.0238 31.8178 23.3275 30.4829 25.8577 28.2824L37.0424 39.5375C37.492 39.987 38.2228 39.987 38.6735 39.5375C39.1242 39.0879 39.1231 38.3594 38.6735 37.9075ZM16.41 29.5319C9.71509 29.5319 4.28698 24.1038 4.28698 17.4089C4.28698 10.7139 9.71394 5.28583 16.41 5.28583C23.105 5.28583 28.5319 10.7128 28.5319 17.4089C28.5319 24.105 23.105 29.5319 16.41 29.5319Z" fill="white"/>
</g>
</svg>
