<svg width="42" height="42" viewBox="0 0 42 42" fill="none" xmlns="http://www.w3.org/2000/svg">
<mask id="mask0_1_2236" style="mask-type:alpha" maskUnits="userSpaceOnUse" x="0" y="0" width="42" height="42">
<rect width="42" height="42" fill="#D9D9D9"/>
</mask>
<g mask="url(#mask0_1_2236)">
<path fill-rule="evenodd" clip-rule="evenodd" d="M11.1403 7.11697C10.6024 6.88494 9.97741 7.00453 9.56318 7.41876L7.41877 9.56317C7.00454 9.9774 6.88494 10.6024 7.11696 11.1403C7.57321 12.2107 8.01057 13.2891 8.43082 14.3741C9.15174 16.2354 9.96133 18.4885 10.3925 20.2132C10.8402 22.0041 11.0528 23.8471 11.5418 25.6278C12.0379 27.4343 12.8419 29.1597 14.5668 30.8847C16.9863 33.3041 19.9648 33.6966 22.2033 33.5306C23.4516 33.4381 24.5113 33.1723 25.2135 32.9537L26.4224 34.1626C27.539 35.2791 29.3494 35.2791 30.4659 34.1626L33.8052 30.8233C34.9218 29.7068 34.9218 27.8963 33.8052 26.7798L32.9341 25.9086C33.154 25.1465 33.4359 23.9523 33.5312 22.5522C33.6925 20.182 33.3232 17.0054 30.8846 14.5668C29.1598 12.8419 27.4344 12.0379 25.6278 11.5418C23.8364 11.0499 21.9962 10.8382 20.2133 10.3925C18.4885 9.96134 16.2354 9.15174 14.3742 8.43082C13.2891 8.01056 12.2107 7.5732 11.1403 7.11697ZM25.0121 29.9936C25.5512 29.7578 26.1798 29.8764 26.5958 30.2925L28.4441 32.1409L31.7834 28.8016L30.2925 27.3106C29.8915 26.9096 29.7655 26.3096 29.9711 25.7814L29.9718 25.7795C30.3807 24.6939 30.6001 23.5106 30.6786 22.3579C30.8134 20.3779 30.4677 18.1935 28.8629 16.5886C27.5552 15.2808 26.2987 14.6911 24.8707 14.299C23.1123 13.8161 21.2889 13.6086 19.5198 13.1664C17.4855 12.6578 14.909 11.7115 12.9768 10.955L19.4473 17.4255C20.0073 17.1577 20.6346 17.0073 21.2961 17.0073C23.6648 17.0073 25.5849 18.9274 25.5849 21.2961C25.5849 23.6647 23.6648 25.585 21.2961 25.585C18.9275 25.585 17.0073 23.6647 17.0073 21.2961C17.0073 20.6345 17.1577 20.0072 17.4256 19.4474L10.955 12.9768C11.7115 14.9089 12.6578 17.4855 13.1664 19.5198C13.6086 21.289 13.8161 23.1122 14.299 24.8707C14.6911 26.2988 15.2808 27.5551 16.5886 28.8629C18.2127 30.4869 20.2377 30.8093 21.9919 30.6792C23.0148 30.6033 24.0602 30.3864 25.0121 29.9936ZM19.8665 21.2961C19.8665 22.0857 20.5065 22.7257 21.2961 22.7257C22.0857 22.7257 22.7257 22.0857 22.7257 21.2961C22.7257 20.5066 22.0857 19.8665 21.2961 19.8665C20.5058 19.8665 19.8665 20.5058 19.8665 21.2961Z" fill="white"/>
</g>
</svg>
